<svg width="26" height="26" viewBox="0 0 26 26" fill="none" xmlns="http://www.w3.org/2000/svg">
<circle cx="12.9077" cy="12.6884" r="12.6113" fill="white"/>
<path d="M8.7774 14.2362L8.26095 16.1641L6.37335 16.2041C5.80923 15.1578 5.48926 13.9606 5.48926 12.6885C5.48926 11.4584 5.78843 10.2983 6.31873 9.27686H6.31913L7.99963 9.58495L8.73579 11.2554C8.58171 11.7046 8.49773 12.1867 8.49773 12.6885C8.49779 13.2331 8.59643 13.7548 8.7774 14.2362Z" fill="black"/>
<path d="M20.1965 11.3025C20.2817 11.7512 20.3261 12.2147 20.3261 12.6883C20.3261 13.2194 20.2703 13.7375 20.1639 14.2372C19.8028 15.9378 18.8591 17.4227 17.552 18.4735L17.5516 18.4731L15.4349 18.3651L15.1353 16.495C16.0027 15.9863 16.6805 15.1902 17.0376 14.2372H13.0708V11.3025H17.0955H20.1965Z" fill="black"/>
<path d="M17.5517 18.4731L17.5521 18.4735C16.2808 19.4954 14.6658 20.1068 12.9078 20.1068C10.0827 20.1068 7.62652 18.5277 6.37354 16.204L8.77759 14.2361C9.40406 15.9081 11.017 17.0983 12.9078 17.0983C13.7206 17.0983 14.482 16.8786 15.1354 16.495L17.5517 18.4731Z" fill="black"/>
<path d="M17.6427 6.97799L15.2394 8.94549C14.5632 8.52282 13.7639 8.27865 12.9075 8.27865C10.9738 8.27865 9.33079 9.52346 8.73569 11.2554L6.31901 9.27688H6.3186C7.55324 6.89648 10.0404 5.27014 12.9075 5.27014C14.7075 5.27014 16.3579 5.91131 17.6427 6.97799Z" fill="black"/>
</svg>
