<svg width="26" height="26" viewBox="0 0 26 26" fill="none" xmlns="http://www.w3.org/2000/svg">
<circle cx="13.32" cy="12.6884" r="12.6113" fill="white"/>
<path d="M20.7384 8.1809C20.1867 8.42292 19.5988 8.58335 18.9858 8.66124C19.6164 8.28476 20.0976 7.69314 20.3239 6.98005C19.736 7.33056 19.0869 7.57815 18.3951 7.71632C17.8369 7.12192 17.0413 6.75378 16.1733 6.75378C14.4893 6.75378 13.1336 8.12062 13.1336 9.79625C13.1336 10.0374 13.154 10.2692 13.2041 10.4899C10.6754 10.3665 8.43778 9.15456 6.93462 7.30831C6.6722 7.76361 6.51827 8.28476 6.51827 8.84577C6.51827 9.89918 7.06074 10.833 7.86934 11.3736C7.38065 11.3643 6.90124 11.2224 6.49508 10.999C6.49508 11.0082 6.49508 11.0203 6.49508 11.0323C6.49508 12.5105 7.54942 13.7382 8.93203 14.021C8.68444 14.0887 8.41459 14.1212 8.13455 14.1212C7.93982 14.1212 7.74323 14.1101 7.5587 14.0693C7.9528 15.2738 9.07112 16.1594 10.4009 16.1881C9.366 16.9977 8.05202 17.4854 6.62954 17.4854C6.3801 17.4854 6.14085 17.4743 5.90161 17.4437C7.24898 18.3126 8.84579 18.8087 10.5678 18.8087C16.165 18.8087 19.2251 14.1722 19.2251 10.1533C19.2251 10.0188 19.2204 9.88898 19.2139 9.76009C19.8176 9.33168 20.3248 8.79663 20.7384 8.1809Z" fill="black"/>
</svg>
