<svg width="20" height="22" viewBox="0 0 20 22" fill="none" xmlns="http://www.w3.org/2000/svg">
<path d="M9.60975 10.7924C12.2595 10.7924 14.4078 8.37647 14.4078 5.39624C14.4078 2.41594 13.7025 0 9.60975 0C5.51697 0 4.81152 2.41594 4.81152 5.39624C4.81152 8.37647 6.95981 10.7924 9.60975 10.7924Z" fill="white"/>
<path d="M19.2092 18.1568C19.115 13.0527 18.3385 11.5984 12.3963 10.6777C12.3963 10.6777 11.5598 11.5927 9.61021 11.5927C7.6606 11.5927 6.824 10.6777 6.824 10.6777C0.946644 11.5883 0.122898 13.0211 0.014586 17.991C0.0057044 18.3968 0.00158857 18.4182 0 18.3711C0.000361039 18.4593 0.000794126 18.6226 0.000794126 18.9073C0.000794126 18.9073 1.41549 21.3555 9.61021 21.3555C17.8048 21.3555 19.2196 18.9073 19.2196 18.9073C19.2196 18.7244 19.2198 18.5972 19.22 18.5106C19.2184 18.5398 19.2152 18.4833 19.2092 18.1568Z" fill="white"/>
</svg>
